ffmpeg started on 2025-05-06 at 09:38:18
Report written to "D:\Convert\FFMetrics\reports\psnr_report-6.txt"
Log level: 32
Command line:
ffmpeg -hide_banner -nostdin -i "G:\\\xc0\xed\xe8\xec\xe5\\\xce\xed\xe3\xee\xe8\xed\xe3\xe8\\!_35_\xcb\xe5\xf2\xee_2024\\JamClub\\\xc1\xe0\xf1\xed\xff\\[JAM_CLUB]_The_Fable_09_[1080p][RUS][DUB]_HEVC.mkv" -i "G:\\\xc0\xed\xe8\xec\xe5\\\xce\xed\xe3\xee\xe8\xed\xe3\xe8\\!_35_\xcb\xe5\xf2\xee_2024\\JamClub\\\xc1\xe0\xf1\xed\xff\\[JAM_CLUB]_The_Fable_09_[1080p][RUS][DUB].mp4" -lavfi "[0:v]settb=AVTB,setpts=PTS-STARTPTS,format=pix_fmts=yuv420p10,fps=24000/1001,scale=1920:1080:flags=bicubic[main];[1:v]settb=AVTB,setpts=PTS-STARTPTS,format=pix_fmts=yuv420p,fps=24000/1001,scale=1920:1080:flags=bicubic[ref];[main][ref]psnr=eof_action=endall:stats_file='D\\:/Convert/FFMetrics/logs/psnr_logfile-6.txt'" -f null -
Input #0, matroska,webm, from 'G:\Аниме\Онгоинги\!_35_Лето_2024\JamClub\Басня\[JAM_CLUB]_The_Fable_09_[1080p][RUS][DUB]_HEVC.mkv':
  Metadata:
    COMPATIBLE_BRANDS: isomiso2avc1mp41
    MAJOR_BRAND     : isom
    MINOR_VERSION   : 512
    ENCODER         : Lavf61.7.100
  Duration: 00:23:14.37, start: -0.001000, bitrate: 828 kb/s
  Stream #0:0: Video: hevc (Main 10), yuv420p10le(tv, bt709, progressive), 1920x1080 [SAR 1:1 DAR 16:9], 23.98 fps, 23.98 tbr, 1k tbn (default)
      Metadata:
        HANDLER_NAME    : VideoHandler
        VENDOR_ID       : [0][0][0][0]
        ENCODER         : Lavc61.19.100 libx265
        BPS             : 627537
        DURATION        : 00:23:14.225708333
        NUMBER_OF_FRAMES: 33428
        NUMBER_OF_BYTES : 109366128
        _STATISTICS_WRITING_APP: mkvpropedit v66.0.0 ('Josie') 64-bit
        _STATISTICS_WRITING_DATE_UTC: 2025-05-05 13:41:30
        _STATISTICS_TAGS: BPS DURATION NUMBER_OF_FRAMES NUMBER_OF_BYTES
  Stream #0:1(eng): Audio: aac (LC), 48000 Hz, stereo, fltp (default)
      Metadata:
        HANDLER_NAME    : SoundHandler
        VENDOR_ID       : [0][0][0][0]
        ENCODER         : Lavc61.19.100 aac
        BPS             : 196659
        DURATION        : 00:23:14.328000000
        NUMBER_OF_FRAMES: 65360
        NUMBER_OF_BYTES : 34275981
        _STATISTICS_WRITING_APP: mkvpropedit v66.0.0 ('Josie') 64-bit
        _STATISTICS_WRITING_DATE_UTC: 2025-05-05 13:41:30
        _STATISTICS_TAGS: BPS DURATION NUMBER_OF_FRAMES NUMBER_OF_BYTES
Input #1, mov,mp4,m4a,3gp,3g2,mj2, from 'G:\Аниме\Онгоинги\!_35_Лето_2024\JamClub\Басня\[JAM_CLUB]_The_Fable_09_[1080p][RUS][DUB].mp4':
  Metadata:
    major_brand     : isom
    minor_version   : 512
    compatible_brands: isomiso2avc1mp41
    encoder         : Lavf60.16.100
  Duration: 00:23:14.35, start: 0.000000, bitrate: 3276 kb/s
  Stream #1:0[0x1](und): Video: h264 (High) (avc1 / 0x31637661), yuv420p(progressive), 1920x1080, 3078 kb/s, 23.98 fps, 23.98 tbr, 90k tbn (default)
      Metadata:
        handler_name    : VideoHandler
        vendor_id       : [0][0][0][0]
  Stream #1:1[0x2](eng): Audio: aac (LC) (mp4a / 0x6134706D), 48000 Hz, stereo, fltp, 191 kb/s (default)
      Metadata:
        handler_name    : SoundHandler
        vendor_id       : [0][0][0][0]
Stream mapping:
  Stream #0:0 (hevc) -> settb:default
  Stream #1:0 (h264) -> settb:default
  psnr:default -> Stream #0:0 (wrapped_avframe)
  Stream #0:1 -> #0:1 (aac (native) -> pcm_s16le (native))
Output #0, null, to 'pipe:':
  Metadata:
    COMPATIBLE_BRANDS: isomiso2avc1mp41
    MAJOR_BRAND     : isom
    MINOR_VERSION   : 512
    encoder         : Lavf61.7.100
  Stream #0:0: Video: wrapped_avframe, yuv420p10le(tv, bt709, progressive), 1920x1080 [SAR 1:1 DAR 16:9], q=2-31, 200 kb/s, 23.98 fps, 23.98 tbn
      Metadata:
        encoder         : Lavc61.19.100 wrapped_avframe
  Stream #0:1(eng): Audio: pcm_s16le, 48000 Hz, stereo, s16, 1536 kb/s (default)
      Metadata:
        HANDLER_NAME    : SoundHandler
        VENDOR_ID       : [0][0][0][0]
        _STATISTICS_TAGS: BPS DURATION NUMBER_OF_FRAMES NUMBER_OF_BYTES
        BPS             : 196659
        DURATION        : 00:23:14.328000000
        NUMBER_OF_FRAMES: 65360
        NUMBER_OF_BYTES : 34275981
        _STATISTICS_WRITING_APP: mkvpropedit v66.0.0 ('Josie') 64-bit
        _STATISTICS_WRITING_DATE_UTC: 2025-05-05 13:41:30
        encoder         : Lavc61.19.100 pcm_s16le
frame=  122 fps=0.0 q=-0.0 size=N/A time=00:00:05.08 bitrate=N/A speed= 9.8x    frame=  285 fps=277 q=-0.0 size=N/A time=00:00:11.88 bitrate=N/A speed=11.6x    frame=  490 fps=315 q=-0.0 size=N/A time=00:00:20.47 bitrate=N/A speed=13.2x    frame=  766 fps=371 q=-0.0 size=N/A time=00:00:31.94 bitrate=N/A speed=15.5x    frame= 1056 fps=408 q=-0.0 size=N/A time=00:00:44.04 bitrate=N/A speed=  17x    frame= 1312 fps=424 q=-0.0 size=N/A time=00:00:54.72 bitrate=N/A speed=17.7x    frame= 1529 fps=424 q=-0.0 size=N/A time=00:01:03.77 bitrate=N/A speed=17.7x    frame= 1728 fps=419 q=-0.0 size=N/A time=00:01:12.07 bitrate=N/A speed=17.5x    frame= 1939 fps=417 q=-0.0 size=N/A time=00:01:20.87 bitrate=N/A speed=17.4x    frame= 2138 fps=414 q=-0.0 size=N/A time=00:01:29.17 bitrate=N/A speed=17.3x    frame= 2342 fps=412 q=-0.0 size=N/A time=00:01:37.68 bitrate=N/A speed=17.2x    frame= 2582 fps=417 q=-0.0 size=N/A time=00:01:47.69 bitrate=N/A speed=17.4x    frame= 2812 fps=419 q=-0.0 size=N/A time=00:01:57.28 bitrate=N/A speed=17.5x    frame= 3048 fps=422 q=-0.0 size=N/A time=00:02:07.12 bitrate=N/A speed=17.6x    frame= 3277 fps=424 q=-0.0 size=N/A time=00:02:16.67 bitrate=N/A speed=17.7x    frame= 3528 fps=427 q=-0.0 size=N/A time=00:02:27.14 bitrate=N/A speed=17.8x    frame= 3796 fps=433 q=-0.0 size=N/A time=00:02:38.32 bitrate=N/A speed=18.1x    frame= 4070 fps=438 q=-0.0 size=N/A time=00:02:49.75 bitrate=N/A speed=18.3x    frame= 4335 fps=442 q=-0.0 size=N/A time=00:03:00.80 bitrate=N/A speed=18.5x    frame= 4611 fps=447 q=-0.0 size=N/A time=00:03:12.31 bitrate=N/A speed=18.6x    frame= 4878 fps=450 q=-0.0 size=N/A time=00:03:23.45 bitrate=N/A speed=18.8x    frame= 5165 fps=455 q=-0.0 size=N/A time=00:03:35.42 bitrate=N/A speed=  19x    frame= 5433 fps=458 q=-0.0 size=N/A time=00:03:46.60 bitrate=N/A speed=19.1x    frame= 5713 fps=461 q=-0.0 size=N/A time=00:03:58.27 bitrate=N/A speed=19.2x    frame= 5987 fps=464 q=-0.0 size=N/A time=00:04:09.70 bitrate=N/A speed=19.4x    frame= 6275 fps=468 q=-0.0 size=N/A time=00:04:21.71 bitrate=N/A speed=19.5x    frame= 6532 fps=469 q=-0.0 size=N/A time=00:04:32.43 bitrate=N/A speed=19.6x    frame= 6799 fps=471 q=-0.0 size=N/A time=00:04:43.57 bitrate=N/A speed=19.6x    frame= 7069 fps=473 q=-0.0 size=N/A time=00:04:54.83 bitrate=N/A speed=19.7x    frame= 7342 fps=475 q=-0.0 size=N/A time=00:05:06.22 bitrate=N/A speed=19.8x    frame= 7602 fps=475 q=-0.0 size=N/A time=00:05:17.06 bitrate=N/A speed=19.8x    frame= 7870 fps=477 q=-0.0 size=N/A time=00:05:28.24 bitrate=N/A speed=19.9x    frame= 8128 fps=478 q=-0.0 size=N/A time=00:05:39.00 bitrate=N/A speed=19.9x    frame= 8400 fps=479 q=-0.0 size=N/A time=00:05:50.35 bitrate=N/A speed=  20x    frame= 8667 fps=480 q=-0.0 size=N/A time=00:06:01.48 bitrate=N/A speed=  20x    frame= 8933 fps=481 q=-0.0 size=N/A time=00:06:12.58 bitrate=N/A speed=20.1x    frame= 9186 fps=481 q=-0.0 size=N/A time=00:06:23.13 bitrate=N/A speed=20.1x    frame= 9433 fps=481 q=-0.0 size=N/A time=00:06:33.43 bitrate=N/A speed=20.1x    frame= 9691 fps=482 q=-0.0 size=N/A time=00:06:44.19 bitrate=N/A speed=20.1x    frame= 9934 fps=482 q=-0.0 size=N/A time=00:06:54.33 bitrate=N/A speed=20.1x    frame=10163 fps=480 q=-0.0 size=N/A time=00:07:03.88 bitrate=N/A speed=  20x    frame=10418 fps=481 q=-0.0 size=N/A time=00:07:14.51 bitrate=N/A speed=20.1x    frame=10675 fps=481 q=-0.0 size=N/A time=00:07:25.23 bitrate=N/A speed=20.1x    frame=10937 fps=482 q=-0.0 size=N/A time=00:07:36.16 bitrate=N/A speed=20.1x    frame=11171 fps=481 q=-0.0 size=N/A time=00:07:45.92 bitrate=N/A speed=20.1x    frame=11390 fps=480 q=-0.0 size=N/A time=00:07:55.05 bitrate=N/A speed=  20x    frame=11642 fps=480 q=-0.0 size=N/A time=00:08:05.56 bitrate=N/A speed=  20x    frame=11876 fps=480 q=-0.0 size=N/A time=00:08:15.32 bitrate=N/A speed=  20x    frame=12138 fps=480 q=-0.0 size=N/A time=00:08:26.25 bitrate=N/A speed=  20x    frame=12400 fps=481 q=-0.0 size=N/A time=00:08:37.18 bitrate=N/A speed=  20x    frame=12650 fps=481 q=-0.0 size=N/A time=00:08:47.61 bitrate=N/A speed=20.1x    frame=12910 fps=481 q=-0.0 size=N/A time=00:08:58.45 bitrate=N/A speed=20.1x    frame=13150 fps=481 q=-0.0 size=N/A time=00:09:08.46 bitrate=N/A speed=20.1x    frame=13393 fps=481 q=-0.0 size=N/A time=00:09:18.59 bitrate=N/A speed=  20x    frame=13641 fps=481 q=-0.0 size=N/A time=00:09:28.94 bitrate=N/A speed=  20x    frame=13896 fps=481 q=-0.0 size=N/A time=00:09:39.57 bitrate=N/A speed=20.1x    frame=14159 fps=481 q=-0.0 size=N/A time=00:09:50.54 bitrate=N/A speed=20.1x    frame=14421 fps=482 q=-0.0 size=N/A time=00:10:01.47 bitrate=N/A speed=20.1x    frame=14687 fps=482 q=-0.0 size=N/A time=00:10:12.57 bitrate=N/A speed=20.1x    frame=14935 fps=482 q=-0.0 size=N/A time=00:10:22.91 bitrate=N/A speed=20.1x    frame=15163 fps=482 q=-0.0 size=N/A time=00:10:32.42 bitrate=N/A speed=20.1x    frame=15416 fps=482 q=-0.0 size=N/A time=00:10:42.97 bitrate=N/A speed=20.1x    frame=15682 fps=483 q=-0.0 size=N/A time=00:10:54.07 bitrate=N/A speed=20.1x    frame=15944 fps=483 q=-0.0 size=N/A time=00:11:04.99 bitrate=N/A speed=20.1x    frame=16204 fps=483 q=-0.0 size=N/A time=00:11:15.84 bitrate=N/A speed=20.2x    frame=16479 fps=484 q=-0.0 size=N/A time=00:11:27.31 bitrate=N/A speed=20.2x    frame=16742 fps=484 q=-0.0 size=N/A time=00:11:38.28 bitrate=N/A speed=20.2x    frame=16990 fps=484 q=-0.0 size=N/A time=00:11:48.62 bitrate=N/A speed=20.2x    frame=17250 fps=485 q=-0.0 size=N/A time=00:11:59.46 bitrate=N/A speed=20.2x    frame=17511 fps=485 q=-0.0 size=N/A time=00:12:10.35 bitrate=N/A speed=20.2x    frame=17766 fps=485 q=-0.0 size=N/A time=00:12:20.99 bitrate=N/A speed=20.2x    frame=18036 fps=486 q=-0.0 size=N/A time=00:12:32.25 bitrate=N/A speed=20.3x    frame=18304 fps=486 q=-0.0 size=N/A time=00:12:43.42 bitrate=N/A speed=20.3x    frame=18592 fps=487 q=-0.0 size=N/A time=00:12:55.44 bitrate=N/A speed=20.3x    frame=18857 fps=487 q=-0.0 size=N/A time=00:13:06.49 bitrate=N/A speed=20.3x    frame=19134 fps=488 q=-0.0 size=N/A time=00:13:18.04 bitrate=N/A speed=20.3x    frame=19414 fps=489 q=-0.0 size=N/A time=00:13:29.72 bitrate=N/A speed=20.4x    frame=19695 fps=489 q=-0.0 size=N/A time=00:13:41.44 bitrate=N/A speed=20.4x    frame=19969 fps=490 q=-0.0 size=N/A time=00:13:52.87 bitrate=N/A speed=20.4x    frame=20224 fps=490 q=-0.0 size=N/A time=00:14:03.50 bitrate=N/A speed=20.4x    frame=20493 fps=490 q=-0.0 size=N/A time=00:14:14.72 bitrate=N/A speed=20.5x    frame=20767 fps=491 q=-0.0 size=N/A time=00:14:26.15 bitrate=N/A speed=20.5x    frame=21048 fps=491 q=-0.0 size=N/A time=00:14:37.87 bitrate=N/A speed=20.5x    frame=21337 fps=492 q=-0.0 size=N/A time=00:14:49.93 bitrate=N/A speed=20.5x    frame=21616 fps=493 q=-0.0 size=N/A time=00:15:01.56 bitrate=N/A speed=20.6x    frame=21899 fps=493 q=-0.0 size=N/A time=00:15:13.37 bitrate=N/A speed=20.6x    frame=22174 fps=494 q=-0.0 size=N/A time=00:15:24.84 bitrate=N/A speed=20.6x    frame=22460 fps=495 q=-0.0 size=N/A time=00:15:36.76 bitrate=N/A speed=20.6x    frame=22742 fps=495 q=-0.0 size=N/A time=00:15:48.53 bitrate=N/A speed=20.7x    frame=23015 fps=496 q=-0.0 size=N/A time=00:15:59.91 bitrate=N/A speed=20.7x    frame=23276 fps=496 q=-0.0 size=N/A time=00:16:10.80 bitrate=N/A speed=20.7x    frame=23541 fps=496 q=-0.0 size=N/A time=00:16:21.85 bitrate=N/A speed=20.7x    frame=23825 fps=496 q=-0.0 size=N/A time=00:16:33.70 bitrate=N/A speed=20.7x    frame=24094 fps=497 q=-0.0 size=N/A time=00:16:44.92 bitrate=N/A speed=20.7x    frame=24361 fps=497 q=-0.0 size=N/A time=00:16:56.05 bitrate=N/A speed=20.7x    frame=24638 fps=497 q=-0.0 size=N/A time=00:17:07.60 bitrate=N/A speed=20.7x    frame=24917 fps=498 q=-0.0 size=N/A time=00:17:19.24 bitrate=N/A speed=20.8x    frame=25205 fps=498 q=-0.0 size=N/A time=00:17:31.25 bitrate=N/A speed=20.8x    frame=25465 fps=498 q=-0.0 size=N/A time=00:17:42.10 bitrate=N/A speed=20.8x    frame=25745 fps=499 q=-0.0 size=N/A time=00:17:53.78 bitrate=N/A speed=20.8x    frame=26015 fps=499 q=-0.0 size=N/A time=00:18:05.04 bitrate=N/A speed=20.8x    frame=26304 fps=500 q=-0.0 size=N/A time=00:18:17.09 bitrate=N/A speed=20.8x    frame=26568 fps=500 q=-0.0 size=N/A time=00:18:28.10 bitrate=N/A speed=20.8x    frame=26844 fps=500 q=-0.0 size=N/A time=00:18:39.61 bitrate=N/A speed=20.9x    frame=27115 fps=500 q=-0.0 size=N/A time=00:18:50.92 bitrate=N/A speed=20.9x    frame=27403 fps=501 q=-0.0 size=N/A time=00:19:02.93 bitrate=N/A speed=20.9x    frame=27678 fps=501 q=-0.0 size=N/A time=00:19:14.40 bitrate=N/A speed=20.9x    frame=27945 fps=501 q=-0.0 size=N/A time=00:19:25.53 bitrate=N/A speed=20.9x    frame=28185 fps=501 q=-0.0 size=N/A time=00:19:35.54 bitrate=N/A speed=20.9x    frame=28467 fps=501 q=-0.0 size=N/A time=00:19:47.31 bitrate=N/A speed=20.9x    frame=28729 fps=501 q=-0.0 size=N/A time=00:19:58.23 bitrate=N/A speed=20.9x    frame=29015 fps=502 q=-0.0 size=N/A time=00:20:10.16 bitrate=N/A speed=20.9x    frame=29292 fps=502 q=-0.0 size=N/A time=00:20:21.72 bitrate=N/A speed=  21x    frame=29569 fps=503 q=-0.0 size=N/A time=00:20:33.27 bitrate=N/A speed=  21x    frame=29846 fps=503 q=-0.0 size=N/A time=00:20:44.82 bitrate=N/A speed=  21x    frame=30114 fps=503 q=-0.0 size=N/A time=00:20:56.00 bitrate=N/A speed=  21x    frame=30382 fps=503 q=-0.0 size=N/A time=00:21:07.18 bitrate=N/A speed=  21x    frame=30647 fps=503 q=-0.0 size=N/A time=00:21:18.23 bitrate=N/A speed=  21x    frame=30935 fps=504 q=-0.0 size=N/A time=00:21:30.24 bitrate=N/A speed=  21x    frame=31212 fps=504 q=-0.0 size=N/A time=00:21:41.80 bitrate=N/A speed=  21x    frame=31397 fps=503 q=-0.0 size=N/A time=00:21:49.51 bitrate=N/A speed=  21x    frame=31556 fps=501 q=-0.0 size=N/A time=00:21:56.14 bitrate=N/A speed=20.9x    frame=31702 fps=500 q=-0.0 size=N/A time=00:22:02.23 bitrate=N/A speed=20.8x    frame=31871 fps=498 q=-0.0 size=N/A time=00:22:09.28 bitrate=N/A speed=20.8x    frame=32032 fps=497 q=-0.0 size=N/A time=00:22:16.00 bitrate=N/A speed=20.7x    frame=32193 fps=495 q=-0.0 size=N/A time=00:22:22.71 bitrate=N/A speed=20.6x    frame=32333 fps=493 q=-0.0 size=N/A time=00:22:28.55 bitrate=N/A speed=20.6x    frame=32473 fps=492 q=-0.0 size=N/A time=00:22:34.39 bitrate=N/A speed=20.5x    frame=32618 fps=490 q=-0.0 size=N/A time=00:22:40.44 bitrate=N/A speed=20.4x    frame=32777 fps=489 q=-0.0 size=N/A time=00:22:47.07 bitrate=N/A speed=20.4x    frame=32997 fps=488 q=-0.0 size=N/A time=00:22:56.24 bitrate=N/A speed=20.4x    frame=33202 fps=487 q=-0.0 size=N/A time=00:23:04.80 bitrate=N/A speed=20.3x    [Parsed_psnr_10 @ 0000025193635f00] PSNR y:49.337425 u:52.379403 v:52.493806 average:50.146794 min:37.687346 max:inf
[out#0/null @ 00000251872706c0] video:14364KiB audio:261440KiB subtitle:0KiB other streams:0KiB global headers:0KiB muxing overhead: unknown
frame=33428 fps=487 q=-0.0 Lsize=N/A time=00:23:14.22 bitrate=N/A speed=20.3x    
